<?xml version="1.0" encoding="utf-8"?>
<!-- Generator: Adobe Illustrator 30.3.0, SVG Export Plug-In . SVG Version: 9.03 Build 0)  -->
<svg version="1.1" id="Layer_1" xmlns="http://www.w3.org/2000/svg" xmlns:xlink="http://www.w3.org/1999/xlink" x="0px" y="0px"
	 viewBox="0 0 128 128" enable-background="new 0 0 128 128" xml:space="preserve">
<g>
	<path fill="none" stroke="#010101" stroke-width="5" stroke-miterlimit="10" d="M12.8,63.9c0-0.7,0.1-9.4,6.9-15.3
		c0.6-0.5,3.2-2.7,7.1-3.9c1.1-0.3,6-1.8,11.9-0.2c3.6,1,5.2,2.5,7.9,4.1c6.5,3.8,13.5,4.6,17.4,4.7c9.5,0.2,17.1-4.3,17.8-4.7
		c3-1.8,4.3-3.1,7.7-4.1c4.9-1.4,9.2-0.4,10.9,0c4.4,1.2,7.3,3.5,7.9,4.1c6.8,5.9,7,14.7,7,15.4c0,7.1-3.8,13-8.2,16.3
		c-0.6,0.5-2.7,1.9-5.7,2.9c-1,0.3-6,1.9-11.8,0.3c-3.7-1-4.5-2.4-8.3-4.4c-1.4-0.8-8.4-4.3-17.2-4.4c-2.1,0-10-0.1-17.4,4.4
		c-2.8,1.7-4.3,3.3-8,4.4c-5.7,1.6-10.7,0.1-11.8-0.2c-3-1-5-2.4-5.7-2.9C16.7,77.1,12.8,71.2,12.8,63.9z"/>
	<circle fill="none" stroke="#010101" stroke-width="5" stroke-miterlimit="10" cx="33" cy="63.7" r="8.9"/>
	<circle fill="none" stroke="#010101" stroke-width="5" stroke-miterlimit="10" cx="95" cy="63.7" r="8.9"/>
</g>
</svg>
